<svg viewBox="0 0 900 700" xmlns="http://www.w3.org/2000/svg" role="img" font-family="system-ui, sans-serif">
<title>模块与组件图（v1.5.0-beta · 对齐 src/）</title>
<desc>代码目录职责与依赖方向：run → ingest/profit → render/server/static</desc>
<style>
.h{fill:#1f2937;font-size:13px;font-weight:700}
.t{fill:#1f2937;font-size:12px;font-weight:600}
.s{fill:#4b5563;font-size:10.5px}
.xs{fill:#6b7280;font-size:9.5px}
.lbl{fill:#6b7280;font-size:11px;font-weight:600}
</style>
<rect x="0" y="0" width="900" height="700" fill="#ffffff"/>
<text x="450" y="24" class="h" text-anchor="middle" font-size="14">模块与组件图 · 对齐当前代码树</text>
<text x="450" y="42" class="xs" text-anchor="middle">产品 v1.5.0-beta · 箭头=调用/依赖方向 · 计算层不依赖展示层</text>

<!-- 入口 -->
<rect x="300" y="56" width="300" height="48" rx="8" fill="#1f2937"/>
<text x="450" y="78" fill="#fff" font-size="13" font-weight="700" text-anchor="middle">run.py</text>
<text x="450" y="94" fill="#d1d5db" font-size="10" text-anchor="middle">更新 | --serve | --scheduled</text>

<!-- 配置 -->
<rect x="40" y="56" width="200" height="48" rx="8" fill="#f3f4f6" stroke="#9ca3af"/>
<text x="140" y="78" class="t" text-anchor="middle">config.json + VERSION</text>
<text x="140" y="94" class="xs" text-anchor="middle">口径唯一源 · 产品号唯一源</text>

<rect x="660" y="56" width="200" height="48" rx="8" fill="#f3f4f6" stroke="#9ca3af"/>
<text x="760" y="78" class="t" text-anchor="middle">数据/（运行时）</text>
<text x="760" y="94" class="xs" text-anchor="middle">xlsx · db · 账号/BU JSON</text>

<!-- 管道层 -->
<text x="40" y="140" class="lbl">抓数 + 清洗管道 src/ingest/</text>
<rect x="40" y="150" width="820" height="100" rx="10" fill="#3b82f61a" stroke="#3b82f6"/>
<rect x="56" y="168" width="110" height="64" rx="6" fill="#fff" stroke="#3b82f6"/>
<text x="111" y="192" class="t" text-anchor="middle">login/fetch</text>
<text x="111" y="210" class="xs" text-anchor="middle">zhiyun · SMB</text>
<rect x="180" y="168" width="100" height="64" rx="6" fill="#fff" stroke="#3b82f6"/>
<text x="230" y="192" class="t" text-anchor="middle">readers</text>
<text x="230" y="210" class="xs" text-anchor="middle">读 xlsx</text>
<rect x="294" y="168" width="100" height="64" rx="6" fill="#fff" stroke="#3b82f6"/>
<text x="344" y="192" class="t" text-anchor="middle">normalize</text>
<text x="344" y="210" class="xs" text-anchor="middle">定位键</text>
<rect x="408" y="168" width="100" height="64" rx="6" fill="#fff" stroke="#3b82f6"/>
<text x="458" y="192" class="t" text-anchor="middle">adjust</text>
<text x="458" y="210" class="xs" text-anchor="middle">重放调整</text>
<rect x="522" y="168" width="100" height="64" rx="6" fill="#fff" stroke="#3b82f6"/>
<text x="572" y="192" class="t" text-anchor="middle">archive</text>
<text x="572" y="210" class="xs" text-anchor="middle">备份快照</text>
<rect x="636" y="168" width="100" height="64" rx="6" fill="#fff" stroke="#3b82f6"/>
<text x="686" y="192" class="t" text-anchor="middle">migrate</text>
<text x="686" y="210" class="xs" text-anchor="middle">手填迁移</text>
<rect x="750" y="168" width="90" height="64" rx="6" fill="#fff" stroke="#3b82f6"/>
<text x="795" y="192" class="t" text-anchor="middle">__init__</text>
<text x="795" y="210" class="xs" text-anchor="middle">串管道</text>

<!-- 存储与计算 -->
<text x="40" y="280" class="lbl">存储 · 计算 · 身份</text>
<rect x="40" y="290" width="200" height="90" rx="8" fill="#10b9811a" stroke="#059669"/>
<text x="140" y="315" class="t" text-anchor="middle">schema.py + db.py</text>
<text x="140" y="335" class="s" text-anchor="middle">DDL 唯一源 · 读写层</text>
<text x="140" y="353" class="xs" text-anchor="middle">调整/手填/分摊/去税/预算</text>
<text x="140" y="368" class="xs" text-anchor="middle">看板.db</text>

<rect x="260" y="290" width="200" height="90" rx="8" fill="#8b5cf61a" stroke="#7c3aed"/>
<text x="360" y="315" class="t" text-anchor="middle">profit.py ★</text>
<text x="360" y="335" class="s" text-anchor="middle">只读库 · 纯函数</text>
<text x="360" y="353" class="xs" text-anchor="middle">32 周期 summary · BU 过滤</text>
<text x="360" y="368" class="xs" text-anchor="middle">分摊 · 去税 · 排名</text>

<rect x="480" y="290" width="180" height="90" rx="8" fill="#f59e0b1a" stroke="#d97706"/>
<text x="570" y="315" class="t" text-anchor="middle">accounts.py</text>
<text x="570" y="335" class="s" text-anchor="middle">看板账号.json</text>
<text x="570" y="353" class="xs" text-anchor="middle">管理员/整体/多 BU</text>
<text x="570" y="368" class="xs" text-anchor="middle">鉴权 · 改密</text>

<rect x="680" y="290" width="180" height="90" rx="8" fill="#f59e0b1a" stroke="#d97706"/>
<text x="770" y="315" class="t" text-anchor="middle">bu.py</text>
<text x="770" y="335" class="s" text-anchor="middle">BU配置.json</text>
<text x="770" y="353" class="xs" text-anchor="middle">销售名单归属</text>
<text x="770" y="368" class="xs" text-anchor="middle">与账号解耦</text>

<!-- 展示 -->
<text x="40" y="410" class="lbl">展示层（v1.4：资源外置 + JSON API）</text>
<rect x="40" y="420" width="160" height="90" rx="8" fill="#ec48991a" stroke="#db2777"/>
<text x="120" y="445" class="t" text-anchor="middle">core.py</text>
<text x="120" y="465" class="s" text-anchor="middle">generate / summary</text>
<text x="120" y="483" class="xs" text-anchor="middle">run↔server 共用</text>
<text x="120" y="498" class="xs" text-anchor="middle">BU pages 装配</text>

<rect x="220" y="420" width="160" height="90" rx="8" fill="#ec48991a" stroke="#db2777"/>
<text x="300" y="445" class="t" text-anchor="middle">render.py</text>
<text x="300" y="465" class="s" text-anchor="middle">预渲染 HTML 块</text>
<text x="300" y="483" class="xs" text-anchor="middle">零金额运算</text>
<text x="300" y="498" class="xs" text-anchor="middle">charts · periods</text>

<rect x="400" y="420" width="160" height="90" rx="8" fill="#6366f11a" stroke="#6366f1"/>
<text x="480" y="445" class="t" text-anchor="middle">api_v1.py</text>
<text x="480" y="465" class="s" text-anchor="middle">cockpit JSON</text>
<text x="480" y="483" class="xs" text-anchor="middle">numbers≡golden</text>
<text x="480" y="498" class="xs" text-anchor="middle">不算账只序列化</text>

<rect x="580" y="420" width="160" height="90" rx="8" fill="#ec48991a" stroke="#db2777"/>
<text x="660" y="445" class="t" text-anchor="middle">server.py</text>
<text x="660" y="465" class="s" text-anchor="middle">FastAPI 路由</text>
<text x="660" y="483" class="xs" text-anchor="middle">页面 + /api/*</text>
<text x="660" y="498" class="xs" text-anchor="middle">管理端 static/admin</text>

<rect x="760" y="420" width="100" height="90" rx="8" fill="#6366f11a" stroke="#6366f1"/>
<text x="810" y="445" class="t" text-anchor="middle">static/</text>
<text x="810" y="465" class="xs" text-anchor="middle">theme.css</text>
<text x="810" y="480" class="xs" text-anchor="middle">cockpit.js</text>
<text x="810" y="495" class="xs" text-anchor="middle">shell.html</text>

<!-- 运维 -->
<text x="40" y="540" class="lbl">运维与质量</text>
<rect x="40" y="550" width="200" height="70" rx="8" fill="#10b9811a" stroke="#059669"/>
<text x="140" y="575" class="t" text-anchor="middle">updater.py</text>
<text x="140" y="595" class="xs" text-anchor="middle">一键更新 · pip 镜像 · 回滚</text>

<rect x="260" y="550" width="200" height="70" rx="8" fill="#10b9811a" stroke="#059669"/>
<text x="360" y="575" class="t" text-anchor="middle">version.py</text>
<text x="360" y="595" class="xs" text-anchor="middle">VERSION · 用户更新日志</text>

<rect x="480" y="550" width="200" height="70" rx="8" fill="#06b6d41a" stroke="#0891b2"/>
<text x="580" y="575" class="t" text-anchor="middle">tests/</text>
<text x="580" y="595" class="xs" text-anchor="middle">run_verify · 回归红线 · golden</text>

<rect x="700" y="550" width="160" height="70" rx="8" fill="#06b6d41a" stroke="#0891b2"/>
<text x="780" y="575" class="t" text-anchor="middle">loaders · validate</text>
<text x="780" y="595" class="xs" text-anchor="middle">配置 · 列解析 · 体检</text>

<rect x="40" y="638" width="820" height="48" rx="8" fill="#f9fafb" stroke="#e5e7eb"/>
<text x="56" y="658" class="s">依赖纪律：profit / ingest 不 import render·server · api_v1 只序列化已算好的 summary · 前端 JS 不做金额运算</text>
<text x="56" y="676" class="xs">theme.py 历史 CSS 变量仍在；主路径主题已外置 static/css/theme.css · 管理端 v1.5：static/admin + /admin/app.js</text>
</svg>
