<svg id="my-svg" width="100%" xmlns="http://www.w3.org/2000/svg" xmlns:xlink="http://www.w3.org/1999/xlink" style="max-width: 1045.42px; background-color: white;" viewBox="-8 -8 1045.421875 682" role="graphics-document document" aria-roledescription="flowchart-v2"><style>#my-svg{font-family:"trebuchet ms",verdana,arial,sans-serif;font-size:16px;fill:#333;}#my-svg .error-icon{fill:#552222;}#my-svg .error-text{fill:#552222;stroke:#552222;}#my-svg .edge-thickness-normal{stroke-width:2px;}#my-svg .edge-thickness-thick{stroke-width:3.5px;}#my-svg .edge-pattern-solid{stroke-dasharray:0;}#my-svg .edge-pattern-dashed{stroke-dasharray:3;}#my-svg .edge-pattern-dotted{stroke-dasharray:2;}#my-svg .marker{fill:#333333;stroke:#333333;}#my-svg .marker.cross{stroke:#333333;}#my-svg svg{font-family:"trebuchet ms",verdana,arial,sans-serif;font-size:16px;}#my-svg .label{font-family:"trebuchet ms",verdana,arial,sans-serif;color:#333;}#my-svg .cluster-label text{fill:#333;}#my-svg .cluster-label span,#my-svg p{color:#333;}#my-svg .label text,#my-svg span,#my-svg p{fill:#333;color:#333;}#my-svg .node rect,#my-svg .node circle,#my-svg .node ellipse,#my-svg .node polygon,#my-svg .node path{fill:#ECECFF;stroke:#9370DB;stroke-width:1px;}#my-svg .flowchart-label text{text-anchor:middle;}#my-svg .node .katex path{fill:#000;stroke:#000;stroke-width:1px;}#my-svg .node .label{text-align:center;}#my-svg .node.clickable{cursor:pointer;}#my-svg .arrowheadPath{fill:#333333;}#my-svg .edgePath .path{stroke:#333333;stroke-width:2.0px;}#my-svg .flowchart-link{stroke:#333333;fill:none;}#my-svg .edgeLabel{background-color:#e8e8e8;text-align:center;}#my-svg .edgeLabel rect{opacity:0.5;background-color:#e8e8e8;fill:#e8e8e8;}#my-svg .labelBkg{background-color:rgba(232, 232, 232, 0.5);}#my-svg .cluster rect{fill:#ffffde;stroke:#aaaa33;stroke-width:1px;}#my-svg .cluster text{fill:#333;}#my-svg .cluster span,#my-svg p{color:#333;}#my-svg div.mermaidTooltip{position:absolute;text-align:center;max-width:200px;padding:2px;font-family:"trebuchet ms",verdana,arial,sans-serif;font-size:12px;background:hsl(80, 100%, 96.2745098039%);border:1px solid #aaaa33;border-radius:2px;pointer-events:none;z-index:100;}#my-svg .flowchartTitleText{text-anchor:middle;font-size:18px;fill:#333;}#my-svg :root{--mermaid-font-family:"trebuchet ms",verdana,arial,sans-serif;}</style><g><marker id="my-svg_flowchart-pointEnd" class="marker flowchart" viewBox="0 0 10 10" refX="6" refY="5" markerUnits="userSpaceOnUse" markerWidth="12" markerHeight="12" orient="auto"><path d="M 0 0 L 10 5 L 0 10 z" class="arrowMarkerPath" style="stroke-width: 1; stroke-dasharray: 1, 0;"/></marker><marker id="my-svg_flowchart-pointStart" class="marker flowchart" viewBox="0 0 10 10" refX="4.5" refY="5" markerUnits="userSpaceOnUse" markerWidth="12" markerHeight="12" orient="auto"><path d="M 0 5 L 10 10 L 10 0 z" class="arrowMarkerPath" style="stroke-width: 1; stroke-dasharray: 1, 0;"/></marker><marker id="my-svg_flowchart-circleEnd" class="marker flowchart" viewBox="0 0 10 10" refX="11" refY="5" markerUnits="userSpaceOnUse" markerWidth="11" markerHeight="11" orient="auto"><circle cx="5" cy="5" r="5" class="arrowMarkerPath" style="stroke-width: 1; stroke-dasharray: 1, 0;"/></marker><marker id="my-svg_flowchart-circleStart" class="marker flowchart" viewBox="0 0 10 10" refX="-1" refY="5" markerUnits="userSpaceOnUse" markerWidth="11" markerHeight="11" orient="auto"><circle cx="5" cy="5" r="5" class="arrowMarkerPath" style="stroke-width: 1; stroke-dasharray: 1, 0;"/></marker><marker id="my-svg_flowchart-crossEnd" class="marker cross flowchart" viewBox="0 0 11 11" refX="12" refY="5.2" markerUnits="userSpaceOnUse" markerWidth="11" markerHeight="11" orient="auto"><path d="M 1,1 l 9,9 M 10,1 l -9,9" class="arrowMarkerPath" style="stroke-width: 2; stroke-dasharray: 1, 0;"/></marker><marker id="my-svg_flowchart-crossStart" class="marker cross flowchart" viewBox="0 0 11 11" refX="-1" refY="5.2" markerUnits="userSpaceOnUse" markerWidth="11" markerHeight="11" orient="auto"><path d="M 1,1 l 9,9 M 10,1 l -9,9" class="arrowMarkerPath" style="stroke-width: 2; stroke-dasharray: 1, 0;"/></marker><g class="root"><g class="clusters"><g class="cluster default flowchart-label" id="Desktop"><rect style="" rx="0" ry="0" x="202.234375" y="0" width="827.1875" height="575"/><g class="cluster-label" transform="translate(478.5, 0)"><foreignObject width="274.65625" height="19"><div xmlns="http://www.w3.org/1999/xhtml" style="display: inline-block; white-space: nowrap;"><span class="nodeLabel">Ubuntu /opt/kanban · VERSION 3.7.19</span></div></foreignObject></g></g></g><g class="edgePaths"><path d="M437.047,63L452.085,63C467.122,63,497.198,63,536.114,95.869C575.03,128.737,622.787,194.475,646.665,227.343L670.544,260.212" id="L-NGX-PY-0" class="edge-thickness-normal edge-pattern-solid flowchart-link LS-NGX LE-PY" style="fill:none;" marker-end="url(#my-svg_flowchart-pointEnd)"/><path d="M458.328,177L469.819,177C481.31,177,504.292,177,536.108,191.08C567.924,205.161,608.574,233.321,628.9,247.402L649.225,261.482" id="L-SYS-PY-0" class="edge-thickness-normal edge-pattern-solid flowchart-link LS-SYS LE-PY" style="fill:none;" marker-end="url(#my-svg_flowchart-pointEnd)"/><path d="M417.883,292.5L436.115,292.5C454.346,292.5,490.81,292.5,519.649,292.5C548.489,292.5,569.704,292.5,580.311,292.5L590.919,292.5" id="L-LOOP-PY-0" class="edge-thickness-normal edge-pattern-solid flowchart-link LS-LOOP LE-PY" style="fill:none;" marker-end="url(#my-svg_flowchart-pointEnd)"/><path d="M428.109,401.5L444.637,401.5C461.164,401.5,494.219,401.5,530.656,388.483C567.094,375.467,606.915,349.433,626.825,336.417L646.735,323.4" id="L-CRON-PY-0" class="edge-thickness-normal edge-pattern-solid flowchart-link LS-CRON LE-PY" style="fill:none;" marker-end="url(#my-svg_flowchart-pointEnd)"/><path d="M422.82,510.5L440.229,510.5C457.638,510.5,492.456,510.5,533.547,479.535C574.638,448.57,622.002,386.64,645.684,355.675L669.366,324.71" id="L-CAND-PY-0" class="edge-thickness-normal edge-pattern-dotted flowchart-link LS-CAND LE-PY" style="fill:none;stroke-width:2px;stroke-dasharray:3;" marker-end="url(#my-svg_flowchart-pointEnd)"/><path d="M708.98,264.5L726.947,230.917C744.914,197.333,780.847,130.167,806.18,96.583C831.512,63,846.243,63,853.608,63L860.973,63" id="L-PY-DATA-0" class="edge-thickness-normal edge-pattern-solid flowchart-link LS-PY LE-DATA" style="fill:none;" marker-end="url(#my-svg_flowchart-pointEnd)"/><path d="M717.347,320.5L733.92,340.375C750.492,360.25,783.637,400,809.623,425.387C835.61,450.774,854.438,461.798,863.853,467.31L873.267,472.822" id="L-PY-MNT-0" class="edge-thickness-normal edge-pattern-solid flowchart-link LS-PY LE-MNT" style="fill:none;" marker-end="url(#my-svg_flowchart-pointEnd)"/><path d="M764.875,502.75L773.526,502.75C782.177,502.75,799.479,502.75,811.414,502.727C823.348,502.704,829.915,502.657,833.198,502.634L836.481,502.611" id="L-APPY-MNT-0" class="edge-thickness-normal edge-pattern-dotted flowchart-link LS-APPY LE-MNT" style="fill:none;stroke-width:2px;stroke-dasharray:3;" marker-end="url(#my-svg_flowchart-pointEnd)"/><path d="M150.984,292.5L155.359,292.5C159.734,292.5,168.484,292.5,177.026,292.5C185.568,292.5,193.901,292.5,208.092,292.5C222.283,292.5,242.331,292.5,252.355,292.5L262.38,292.5" id="L-ZY-LOOP-0" class="edge-thickness-normal edge-pattern-solid flowchart-link LS-ZY LE-LOOP" style="fill:none;" marker-end="url(#my-svg_flowchart-pointEnd)"/><path d="M727.136,610L742.077,597.375C757.018,584.75,786.9,559.5,805.162,545.868C823.424,532.235,830.067,530.22,833.388,529.213L836.709,528.205" id="L-SMB-MNT-0" class="edge-thickness-normal edge-pattern-solid flowchart-link LS-SMB LE-MNT" style="fill:none;" marker-end="url(#my-svg_flowchart-pointEnd)"/><path d="M152.234,177L156.401,177C160.568,177,168.901,177,177.234,177C185.568,177,193.901,177,201.351,177C208.801,177,215.368,177,218.651,177L221.934,177" id="L-GIT-SYS-0" class="edge-thickness-normal edge-pattern-solid flowchart-link LS-GIT LE-SYS" style="fill:none;" marker-end="url(#my-svg_flowchart-pointEnd)"/><path d="M127.813,63L136.049,63C144.286,63,160.76,63,173.164,63C185.568,63,193.901,63,204.898,63C215.895,63,229.555,63,236.385,63L243.216,63" id="L-BROWSER-NGX-0" class="edge-thickness-normal edge-pattern-solid flowchart-link LS-BROWSER LE-NGX" style="fill:none;" marker-end="url(#my-svg_flowchart-pointEnd)"/><path d="M405.82,638L426.063,638C446.305,638,486.789,638,524.1,638C561.41,638,595.547,638,612.616,638L629.684,638" id="L-WIFI-SMB-0" class="edge-thickness-normal edge-pattern-dotted flowchart-link LS-WIFI LE-SMB" style="fill:none;stroke-width:2px;stroke-dasharray:3;" marker-end="url(#my-svg_flowchart-pointEnd)"/></g><g class="edgeLabels"><g class="edgeLabel"><g class="label" transform="translate(0, 0)"><foreignObject width="0" height="0"><div xmlns="http://www.w3.org/1999/xhtml" style="display: inline-block; white-space: nowrap;"><span class="edgeLabel"></span></div></foreignObject></g></g><g class="edgeLabel"><g class="label" transform="translate(0, 0)"><foreignObject width="0" height="0"><div xmlns="http://www.w3.org/1999/xhtml" style="display: inline-block; white-space: nowrap;"><span class="edgeLabel"></span></div></foreignObject></g></g><g class="edgeLabel"><g class="label" transform="translate(0, 0)"><foreignObject width="0" height="0"><div xmlns="http://www.w3.org/1999/xhtml" style="display: inline-block; white-space: nowrap;"><span class="edgeLabel"></span></div></foreignObject></g></g><g class="edgeLabel"><g class="label" transform="translate(0, 0)"><foreignObject width="0" height="0"><div xmlns="http://www.w3.org/1999/xhtml" style="display: inline-block; white-space: nowrap;"><span class="edgeLabel"></span></div></foreignObject></g></g><g class="edgeLabel" transform="translate(527.2734375, 510.5)"><g class="label" transform="translate(-43.9453125, -11)"><foreignObject width="87.890625" height="22"><div xmlns="http://www.w3.org/1999/xhtml" style="display: inline-block; white-space: nowrap;"><span class="edgeLabel">publish 旁路</span></div></foreignObject></g></g><g class="edgeLabel"><g class="label" transform="translate(0, 0)"><foreignObject width="0" height="0"><div xmlns="http://www.w3.org/1999/xhtml" style="display: inline-block; white-space: nowrap;"><span class="edgeLabel"></span></div></foreignObject></g></g><g class="edgeLabel"><g class="label" transform="translate(0, 0)"><foreignObject width="0" height="0"><div xmlns="http://www.w3.org/1999/xhtml" style="display: inline-block; white-space: nowrap;"><span class="edgeLabel"></span></div></foreignObject></g></g><g class="edgeLabel"><g class="label" transform="translate(0, 0)"><foreignObject width="0" height="0"><div xmlns="http://www.w3.org/1999/xhtml" style="display: inline-block; white-space: nowrap;"><span class="edgeLabel"></span></div></foreignObject></g></g><g class="edgeLabel"><g class="label" transform="translate(0, 0)"><foreignObject width="0" height="0"><div xmlns="http://www.w3.org/1999/xhtml" style="display: inline-block; white-space: nowrap;"><span class="edgeLabel"></span></div></foreignObject></g></g><g class="edgeLabel"><g class="label" transform="translate(0, 0)"><foreignObject width="0" height="0"><div xmlns="http://www.w3.org/1999/xhtml" style="display: inline-block; white-space: nowrap;"><span class="edgeLabel"></span></div></foreignObject></g></g><g class="edgeLabel"><g class="label" transform="translate(0, 0)"><foreignObject width="0" height="0"><div xmlns="http://www.w3.org/1999/xhtml" style="display: inline-block; white-space: nowrap;"><span class="edgeLabel"></span></div></foreignObject></g></g><g class="edgeLabel"><g class="label" transform="translate(0, 0)"><foreignObject width="0" height="0"><div xmlns="http://www.w3.org/1999/xhtml" style="display: inline-block; white-space: nowrap;"><span class="edgeLabel"></span></div></foreignObject></g></g><g class="edgeLabel"><g class="label" transform="translate(0, 0)"><foreignObject width="0" height="0"><div xmlns="http://www.w3.org/1999/xhtml" style="display: inline-block; white-space: nowrap;"><span class="edgeLabel"></span></div></foreignObject></g></g></g><g class="nodes"><g class="node default default flowchart-label" id="flowchart-NGX-0" data-node="true" data-id="NGX" transform="translate(342.78125, 63)"><rect class="basic label-container" style="" rx="0" ry="0" x="-94.265625" y="-28" width="188.53125" height="56"/><g class="label" style="" transform="translate(-86.765625, -20.5)"><rect/><foreignObject width="173.53125" height="41"><div xmlns="http://www.w3.org/1999/xhtml" style="display: inline-block; white-space: nowrap;"><span class="nodeLabel">nginx · dist + 反代<br />dash.besteasy.com:8001</span></div></foreignObject></g></g><g class="node default default flowchart-label" id="flowchart-SYS-1" data-node="true" data-id="SYS" transform="translate(342.78125, 177)"><rect class="basic label-container" style="" rx="0" ry="0" x="-115.546875" y="-36" width="231.09375" height="72"/><g class="label" style="" transform="translate(-108.046875, -28.5)"><rect/><foreignObject width="216.09375" height="57"><div xmlns="http://www.w3.org/1999/xhtml" style="display: inline-block; white-space: nowrap;"><span class="nodeLabel">systemd kanban<br />Restart=on-failure<br />RWPaths+/mnt/kanban-ledger</span></div></foreignObject></g></g><g class="node default default flowchart-label" id="flowchart-LOOP-2" data-node="true" data-id="LOOP" transform="translate(342.78125, 292.5)"><rect class="basic label-container" style="" rx="0" ry="0" x="-75.1015625" y="-29.5" width="150.203125" height="59"/><g class="label" style="" transform="translate(-67.6015625, -22)"><rect/><foreignObject width="135.203125" height="44"><div xmlns="http://www.w3.org/1999/xhtml" style="display: inline-block; white-space: nowrap;"><span class="nodeLabel">ScheduleLoop 日更<br />每时点完整刷新</span></div></foreignObject></g></g><g class="node default default flowchart-label" id="flowchart-CRON-3" data-node="true" data-id="CRON" transform="translate(342.78125, 401.5)"><rect class="basic label-container" style="" rx="0" ry="0" x="-85.328125" y="-29.5" width="170.65625" height="59"/><g class="label" style="" transform="translate(-77.828125, -22)"><rect/><foreignObject width="155.65625" height="44"><div xmlns="http://www.w3.org/1999/xhtml" style="display: inline-block; white-space: nowrap;"><span class="nodeLabel">cron 体检/备份<br />无 run.py --scheduled</span></div></foreignObject></g></g><g class="node default default flowchart-label" id="flowchart-PY-4" data-node="true" data-id="PY" transform="translate(694, 292.5)"><rect class="basic label-container" style="" rx="0" ry="0" x="-97.78125" y="-28" width="195.5625" height="56"/><g class="label" style="" transform="translate(-90.28125, -20.5)"><rect/><foreignObject width="180.5625" height="41"><div xmlns="http://www.w3.org/1999/xhtml" style="display: inline-block; white-space: nowrap;"><span class="nodeLabel">主进程 127.0.0.1:8018<br />KANBAN_SERVE_STATIC=0</span></div></foreignObject></g></g><g class="node default default flowchart-label" id="flowchart-CAND-5" data-node="true" data-id="CAND" transform="translate(342.78125, 510.5)"><rect class="basic label-container" style="" rx="0" ry="0" x="-80.0390625" y="-29.5" width="160.078125" height="59"/><g class="label" style="" transform="translate(-72.5390625, -22)"><rect/><foreignObject width="145.078125" height="44"><div xmlns="http://www.w3.org/1999/xhtml" style="display: inline-block; white-space: nowrap;"><span class="nodeLabel">发版候选 :8019 预热<br />health 通过后切主</span></div></foreignObject></g></g><g class="node default default flowchart-label" id="flowchart-DATA-6" data-node="true" data-id="DATA" transform="translate(923.1015625, 63)"><rect class="basic label-container" style="" rx="0" ry="0" x="-56.828125" y="-28" width="113.65625" height="56"/><g class="label" style="" transform="translate(-49.328125, -20.5)"><rect/><foreignObject width="98.65625" height="41"><div xmlns="http://www.w3.org/1999/xhtml" style="display: inline-block; white-space: nowrap;"><span class="nodeLabel">数据/ xlsx+db<br />gitignore</span></div></foreignObject></g></g><g class="node default default flowchart-label" id="flowchart-MNT-7" data-node="true" data-id="MNT" transform="translate(923.1015625, 502)"><rect class="basic label-container" style="" rx="0" ry="0" x="-81.3203125" y="-26.5" width="162.640625" height="53"/><g class="label" style="" transform="translate(-73.8203125, -19)"><rect/><foreignObject width="147.640625" height="38"><div xmlns="http://www.w3.org/1999/xhtml" style="display: inline-block; white-space: nowrap;"><span class="nodeLabel">/mnt/kanban-ledger<br />cifs automount</span></div></foreignObject></g></g><g class="node default default flowchart-label" id="flowchart-APPY-8" data-node="true" data-id="APPY" transform="translate(694, 502.75)"><rect class="basic label-container" style="" rx="0" ry="0" x="-70.875" y="-28" width="141.75" height="56"/><g class="label" style="" transform="translate(-63.375, -20.5)"><rect/><foreignObject width="126.75" height="41"><div xmlns="http://www.w3.org/1999/xhtml" style="display: inline-block; white-space: nowrap;"><span class="nodeLabel">kanban-cifs-apply<br />sudoers 白名单</span></div></foreignObject></g></g><g class="node default default flowchart-label" id="flowchart-ZY-25" data-node="true" data-id="ZY" transform="translate(76.1171875, 292.5)"><rect class="basic label-container" style="" rx="0" ry="0" x="-74.8671875" y="-29.5" width="149.734375" height="59"/><g class="label" style="" transform="translate(-67.3671875, -22)"><rect/><foreignObject width="134.734375" height="44"><div xmlns="http://www.w3.org/1999/xhtml" style="display: inline-block; white-space: nowrap;"><span class="nodeLabel">智云 API 四源<br />短退避+48h 新鲜度</span></div></foreignObject></g></g><g class="node default default flowchart-label" id="flowchart-SMB-27" data-node="true" data-id="SMB" transform="translate(694, 638)"><rect class="basic label-container" style="" rx="0" ry="0" x="-59.015625" y="-28" width="118.03125" height="56"/><g class="label" style="" transform="translate(-51.515625, -20.5)"><rect/><foreignObject width="103.03125" height="41"><div xmlns="http://www.w3.org/1999/xhtml" style="display: inline-block; white-space: nowrap;"><span class="nodeLabel">SMB 192.168.x<br />财务部共享</span></div></foreignObject></g></g><g class="node default default flowchart-label" id="flowchart-GIT-29" data-node="true" data-id="GIT" transform="translate(76.1171875, 177)"><rect class="basic label-container" style="" rx="0" ry="0" x="-76.1171875" y="-17" width="152.234375" height="34"/><g class="label" style="" transform="translate(-68.6171875, -9.5)"><rect/><foreignObject width="137.234375" height="19"><div xmlns="http://www.w3.org/1999/xhtml" style="display: inline-block; white-space: nowrap;"><span class="nodeLabel">GitHub/Gitee main</span></div></foreignObject></g></g><g class="node default default flowchart-label" id="flowchart-BROWSER-31" data-node="true" data-id="BROWSER" transform="translate(76.1171875, 63)"><rect class="basic label-container" style="" rx="0" ry="0" x="-51.6953125" y="-18.5" width="103.390625" height="37"/><g class="label" style="" transform="translate(-44.1953125, -11)"><rect/><foreignObject width="88.390625" height="22"><div xmlns="http://www.w3.org/1999/xhtml" style="display: inline-block; white-space: nowrap;"><span class="nodeLabel">浏览器/手机</span></div></foreignObject></g></g><g class="node default default flowchart-label" id="flowchart-WIFI-33" data-node="true" data-id="WIFI" transform="translate(342.78125, 638)"><rect class="basic label-container" style="" rx="0" ry="0" x="-63.0390625" y="-17" width="126.078125" height="34"/><g class="label" style="" transform="translate(-55.5390625, -9.5)"><rect/><foreignObject width="111.078125" height="19"><div xmlns="http://www.w3.org/1999/xhtml" style="display: inline-block; white-space: nowrap;"><span class="nodeLabel">Wi-Fi BESTEASY</span></div></foreignObject></g></g></g></g></g></svg>