<!-- stage66 2026-07-21: Vue-only admin, export on-demand, fen Decimal, incremental recompute, gen_vm_ts -->
<svg viewBox="0 0 960 740" xmlns="http://www.w3.org/2000/svg" role="img" font-family="system-ui, sans-serif">
<title>模块与组件图 v2.0 · 对齐 src/ + frontend/</title>
<style>
.h{fill:#0f172a;font-size:14px;font-weight:700}
.t{fill:#0f172a;font-size:11.5px;font-weight:600}
.s{fill:#334155;font-size:10.5px}
.xs{fill:#64748b;font-size:9.5px}
.lbl{fill:#475569;font-size:11px;font-weight:700}
</style>
<rect width="960" height="740" fill="#ffffff"/>
<text x="480" y="24" class="h" text-anchor="middle">模块与组件图 · 对齐当前代码树</text>
<text x="480" y="42" class="xs" text-anchor="middle">产品 v2.0.0-rc12 · 箭头=依赖方向 · 计算层不依赖展示层 · 前端零金额运算</text>

<!-- 入口行 -->
<rect x="320" y="58" width="320" height="48" rx="8" fill="#0f172a"/>
<text x="480" y="80" fill="#fff" font-size="13" font-weight="700" text-anchor="middle">run.py</text>
<text x="480" y="96" fill="#cbd5e1" font-size="10" text-anchor="middle">更新 | --serve | --scheduled</text>

<rect x="40" y="58" width="220" height="48" rx="8" fill="#f1f5f9" stroke="#94a3b8"/>
<text x="150" y="80" class="t" text-anchor="middle">config.json + VERSION</text>
<text x="150" y="96" class="xs" text-anchor="middle">口径 · 产品号</text>

<rect x="700" y="58" width="220" height="48" rx="8" fill="#f1f5f9" stroke="#94a3b8"/>
<text x="810" y="80" class="t" text-anchor="middle">数据/（运行时）</text>
<text x="810" y="96" class="xs" text-anchor="middle">xlsx · db · 账号/BU JSON</text>

<!-- 抓数 -->
<text x="40" y="132" class="lbl">抓数 + 清洗 · src/ingest/</text>
<rect x="40" y="142" width="880" height="88" rx="10" fill="#eff6ff" stroke="#3b82f6"/>
<rect x="56" y="158" width="115" height="56" rx="6" fill="#fff" stroke="#3b82f6"/>
<text x="113" y="182" class="t" text-anchor="middle">login/fetch</text>
<text x="113" y="198" class="xs" text-anchor="middle">zhiyun · SMB</text>
<rect x="184" y="158" width="100" height="56" rx="6" fill="#fff" stroke="#3b82f6"/>
<text x="234" y="182" class="t" text-anchor="middle">readers</text>
<text x="234" y="198" class="xs" text-anchor="middle">读 xlsx</text>
<rect x="298" y="158" width="100" height="56" rx="6" fill="#fff" stroke="#3b82f6"/>
<text x="348" y="182" class="t" text-anchor="middle">normalize</text>
<text x="348" y="198" class="xs" text-anchor="middle">定位键</text>
<rect x="412" y="158" width="100" height="56" rx="6" fill="#fff" stroke="#3b82f6"/>
<text x="462" y="182" class="t" text-anchor="middle">adjust</text>
<text x="462" y="198" class="xs" text-anchor="middle">重放调整</text>
<rect x="526" y="158" width="100" height="56" rx="6" fill="#fff" stroke="#3b82f6"/>
<text x="576" y="182" class="t" text-anchor="middle">archive</text>
<text x="576" y="198" class="xs" text-anchor="middle">备份快照</text>
<rect x="640" y="158" width="100" height="56" rx="6" fill="#fff" stroke="#3b82f6"/>
<text x="690" y="182" class="t" text-anchor="middle">migrate</text>
<text x="690" y="198" class="xs" text-anchor="middle">手填迁移</text>
<rect x="754" y="158" width="148" height="56" rx="6" fill="#fff" stroke="#3b82f6"/>
<text x="828" y="182" class="t" text-anchor="middle">refresh_pipeline</text>
<text x="828" y="198" class="xs" text-anchor="middle">串管道 / 锁</text>

<!-- 存储计算身份 -->
<text x="40" y="256" class="lbl">存储 · 计算 · 身份</text>
<rect x="40" y="266" width="200" height="90" rx="8" fill="#ecfdf5" stroke="#059669"/>
<text x="140" y="292" class="t" text-anchor="middle">schema · db · db_pkg</text>
<text x="140" y="312" class="s" text-anchor="middle">DDL · 读写 · WAL</text>
<text x="140" y="332" class="xs" text-anchor="middle">看板.db</text>

<rect x="256" y="266" width="200" height="90" rx="8" fill="#f5f3ff" stroke="#7c3aed"/>
<text x="356" y="292" class="t" text-anchor="middle">domain / profit ★</text>
<text x="356" y="312" class="s" text-anchor="middle">纯函数 · 32 周期</text>
<text x="356" y="332" class="xs" text-anchor="middle">BU 过滤 · 分摊去税</text>

<rect x="472" y="266" width="160" height="90" rx="8" fill="#fff7ed" stroke="#ea580c"/>
<text x="552" y="292" class="t" text-anchor="middle">accounts</text>
<text x="552" y="312" class="s" text-anchor="middle">账号 JSON</text>
<text x="552" y="332" class="xs" text-anchor="middle">鉴权 · 改密</text>

<rect x="648" y="266" width="140" height="90" rx="8" fill="#fff7ed" stroke="#ea580c"/>
<text x="718" y="292" class="t" text-anchor="middle">bu.py</text>
<text x="718" y="312" class="s" text-anchor="middle">BU 配置</text>
<text x="718" y="332" class="xs" text-anchor="middle">销售归属</text>

<rect x="804" y="266" width="116" height="90" rx="8" fill="#fef2f2" stroke="#ef4444"/>
<text x="862" y="292" class="t" text-anchor="middle">login_guard</text>
<text x="862" y="312" class="s" text-anchor="middle">防爆破</text>
<text x="862" y="332" class="xs" text-anchor="middle">N 次锁 M 分</text>

<!-- 后端服务 -->
<text x="40" y="384" class="lbl">后端服务 · FastAPI</text>
<rect x="40" y="394" width="160" height="88" rx="8" fill="#fdf2f8" stroke="#db2777"/>
<text x="120" y="420" class="t" text-anchor="middle">server.py</text>
<text x="120" y="440" class="s" text-anchor="middle">应用组装</text>
<text x="120" y="458" class="xs" text-anchor="middle">中间件 · 静态</text>

<rect x="216" y="394" width="160" height="88" rx="8" fill="#fdf2f8" stroke="#db2777"/>
<text x="296" y="420" class="t" text-anchor="middle">routes/*</text>
<text x="296" y="440" class="s" text-anchor="middle">auth · admin</text>
<text x="296" y="458" class="xs" text-anchor="middle">detail · export</text>

<rect x="392" y="394" width="160" height="88" rx="8" fill="#eef2ff" stroke="#6366f1"/>
<text x="472" y="420" class="t" text-anchor="middle">api_v1 · VM</text>
<text x="472" y="440" class="s" text-anchor="middle">序列化 only</text>
<text x="472" y="458" class="xs" text-anchor="middle">numbers≡golden</text>

<rect x="568" y="394" width="160" height="88" rx="8" fill="#fdf2f8" stroke="#db2777"/>
<text x="648" y="420" class="t" text-anchor="middle">core · render_*</text>
<text x="648" y="440" class="s" text-anchor="middle">summary 装配</text>
<text x="648" y="458" class="xs" text-anchor="middle">遗留预渲染块</text>

<rect x="744" y="394" width="176" height="88" rx="8" fill="#ecfdf5" stroke="#059669"/>
<text x="832" y="420" class="t" text-anchor="middle">updater · version</text>
<text x="832" y="440" class="s" text-anchor="middle">一键更新/回滚</text>
<text x="832" y="458" class="xs" text-anchor="middle">pip 镜像 · 版本号</text>

<!-- 前端 -->
<text x="40" y="510" class="lbl">前端 · frontend/（Vue3 · 生产产物 dist）</text>
<rect x="40" y="520" width="220" height="88" rx="8" fill="#0f766e"/>
<text x="150" y="548" fill="#ecfeff" font-size="12" font-weight="700" text-anchor="middle">看端 SPA</text>
<text x="150" y="568" fill="#ccfbf1" font-size="10" text-anchor="middle">views/components</text>
<text x="150" y="584" fill="#ccfbf1" font-size="10" text-anchor="middle">ECharts · SciFi 主题</text>

<rect x="280" y="520" width="220" height="88" rx="8" fill="#134e4a"/>
<text x="390" y="548" fill="#ecfeff" font-size="12" font-weight="700" text-anchor="middle">管理端 SPA</text>
<text x="390" y="568" fill="#ccfbf1" font-size="10" text-anchor="middle">admin/ · Element Plus</text>
<text x="390" y="584" fill="#ccfbf1" font-size="10" text-anchor="middle">改数 · 设置 · 账号</text>

<rect x="520" y="520" width="200" height="88" rx="8" fill="#eef2ff" stroke="#6366f1"/>
<text x="620" y="548" class="t" text-anchor="middle">api/ · stores/</text>
<text x="620" y="568" class="s" text-anchor="middle">VM 类型契约</text>
<text x="620" y="584" class="xs" text-anchor="middle">session · cockpit</text>

<rect x="740" y="520" width="180" height="88" rx="8" fill="#f1f5f9" stroke="#94a3b8"/>
<text x="830" y="548" class="t" text-anchor="middle">static/ 残留</text>
<text x="830" y="568" class="s" text-anchor="middle">重定向壳 / 资产</text>
<text x="830" y="584" class="xs" text-anchor="middle">非主路径</text>

<!-- 运维质量 -->
<text x="40" y="638" class="lbl">运维 · 质量 · 部署模板</text>
<rect x="40" y="648" width="200" height="56" rx="8" fill="#ecfdf5" stroke="#059669"/>
<text x="140" y="672" class="t" text-anchor="middle">deploy/linux/</text>
<text x="140" y="690" class="xs" text-anchor="middle">systemd · nginx · 看门狗</text>

<rect x="260" y="648" width="200" height="56" rx="8" fill="#e0f2fe" stroke="#0284c7"/>
<text x="360" y="672" class="t" text-anchor="middle">tests/</text>
<text x="360" y="690" class="xs" text-anchor="middle">run_verify · 红线 · golden</text>

<rect x="480" y="648" width="200" height="56" rx="8" fill="#e0f2fe" stroke="#0284c7"/>
<text x="580" y="672" class="t" text-anchor="middle">docs/</text>
<text x="580" y="690" class="xs" text-anchor="middle">Runbook · Ubuntu 手册</text>

<rect x="700" y="648" width="220" height="56" rx="8" fill="#fef3c7" stroke="#d97706"/>
<text x="810" y="672" class="t" text-anchor="middle">依赖纪律</text>
<text x="810" y="690" class="xs" text-anchor="middle">profit ↛ render/server</text>
</svg>
